<svg width="200" height="200" version="1.1" id="Layer_1" xmlns="http://www.w3.org/2000/svg" x="0" y="0" viewBox="-569 283 60 64" xml:space="preserve"><style>.st1{fill:#559df2}.st2{fill:#fff}.st3{fill:#050505}</style><switch><g><circle cx="-538.9" cy="314.2" r="29.1" fill="#f8f8f8"/><path d="M-546 309.8h6v14.1h-6z"/><path class="st1" d="M-546 309.8h1v14.1h-1z"/><path class="st1" d="M-546 309.8h6v1h-6z"/><path d="M-541.8 321.8h14.7v6h-14.7z"/><path class="st1" d="M-541.8 321.8h14.7v1h-14.7z"/><path class="st2" d="M-540.1 324.1h-6c-.2 0-.3-.1-.3-.3v-14.1c0-.2.1-.3.3-.3h6c.2 0 .3.1.3.3v14.1c0 .2-.1.3-.3.3zm-5.6-.6h5.4V310h-5.4v13.5z"/><path class="st1" d="M-540.1 309.8h1.6v14.1h-1.6z"/><path class="st2" d="M-538.4 324.1h-1.6c-.2 0-.3-.1-.3-.3v-14.1c0-.2.1-.3.3-.3h1.6c.2 0 .3.1.3.3v14.1c0 .2-.2.3-.3.3zm-1.4-.6h1.1V310h-1.1v13.5z"/><path class="st2" d="M-527.1 328.1h-14.7c-.2 0-.3-.1-.3-.3v-6c0-.2.1-.3.3-.3h14.7v.6h-14.4v5.4h14.4v.6z"/><circle class="st1" cx="-542.2" cy="324" r="4.9"/><path class="st2" d="M-542.2 329.2c-2.9 0-5.2-2.3-5.2-5.2s2.3-5.2 5.2-5.2c2.9 0 5.2 2.3 5.2 5.2s-2.3 5.2-5.2 5.2zm0-9.9c-2.6 0-4.7 2.1-4.7 4.7s2.1 4.7 4.7 4.7 4.7-2.1 4.7-4.7-2.2-4.7-4.7-4.7z"/><path class="st3" d="M-542.2 330.6h-.6l.1-.6h1.2l.1.6h-.8zm-1.8-.3c-.4-.1-.8-.3-1.1-.4l.3-.5c.3.2.7.3 1 .4l-.2.5zm3.6 0l-.2-.6c.4-.1.7-.2 1-.4l.3.5c-.3.3-.7.4-1.1.5zm-5.8-1c-.3-.2-.6-.5-.9-.8l.4-.4c.3.3.5.5.8.7l-.3.5zm8-.1l-.4-.5c.3-.2.6-.5.8-.8l.4.4c-.2.4-.5.7-.8.9zm-9.6-1.7c-.2-.3-.4-.7-.6-1.1l.5-.2c.1.3.3.7.5 1l-.4.3zm11.2-.1l-.5-.3c.2-.3.4-.7.5-1l.5.2c-.1.4-.3.8-.5 1.1zm-12.1-2.2c-.1-.4-.1-.8-.1-1.2h.6c0 .4 0 .7.1 1.1l-.6.1zm13 0l-.6-.1c.1-.4.1-.7.1-1.1v-.1h.6v.1c0 .4 0 .8-.1 1.2zm-12.5-2.3l-.6-.1.3-1.2.5.2c0 .4-.1.7-.2 1.1zm11.9-.1c-.1-.4-.2-.7-.3-1.1l.5-.2c.2.4.3.8.3 1.2l-.5.1zm-11.1-2l-.5-.3c.2-.3.5-.7.7-1l.4.4-.6.9zm10.3-.1c-.2-.3-.4-.6-.7-.9l.4-.4c.3.3.5.6.7 1l-.4.3zm-8.8-1.5l-.4-.5c.3-.2.7-.5 1-.7l.3.5c-.3.2-.6.4-.9.7zm7.3-.1c-.3-.2-.6-.4-1-.6l.3-.5c.4.2.7.4 1 .6l-.3.5zm-5.3-.9l-.2-.6c.4-.1.8-.2 1.2-.2l.1.6c-.4 0-.8.1-1.1.2zm3.3-.1c-.4-.1-.7-.2-1.1-.2v-.6c.4 0 .8.1 1.2.2l-.1.6zM-539.6 313.8c-.2 0-.4-.1-.6-.1l.1-.6c.2 0 .4.1.6.1l-.1.6zM-532.5 320.1c-.1-.4-.3-.8-.5-1.1l.5-.3c.2.4.4.8.5 1.2l-.5.2zm-1.1-2.1c-.2-.3-.5-.7-.8-1l.4-.4c.3.3.6.7.8 1l-.4.4zm-1.7-1.9c-.3-.3-.6-.5-1-.8l.3-.5c.4.2.7.5 1 .8l-.3.5zm-2-1.4c-.4-.2-.7-.4-1.1-.5l.2-.5c.4.2.8.3 1.2.5l-.3.5zM-532 321.9c0-.2-.1-.4-.1-.6l.6-.1c.1.2.1.4.1.6l-.6.1z"/><circle class="st3" cx="-542.2" cy="324" r="2.4"/><path class="st2" d="M-542.2 326.6v-.6c.4 0 .7-.1 1-.3l.3.5c-.4.3-.8.4-1.3.4zm-1.3-.3c-.4-.2-.7-.6-1-1l.5-.3c.2.3.4.6.8.8l-.3.5zm3.6-1l-.5-.3c.2-.3.3-.7.3-1h.6c-.1.4-.2.9-.4 1.3zm-4.9-1.3c-.1-.5 0-.9.3-1.3l.5.3c-.2.3-.3.7-.3 1h-.5zm4.4-1.1c-.2-.3-.5-.6-.8-.7l.3-.5c.4.2.7.6 1 1l-.5.2zm-2.9-.7l-.3-.5c.4-.2.9-.4 1.3-.4v.6c-.3 0-.7.1-1 .3z"/><path class="st3" d="M-540.8 300.6v-4.2c0-.7.6-1.2 1.2-1.2.7 0 1.2.6 1.2 1.2v11.8c0 .9-.7 1.6-1.6 1.6h-6.1c-.9 0-1.6-.7-1.6-1.6v-6.3c0-.7.6-1.3 1.3-1.3h5.6z"/><path class="st3" d="M-540 296.4c0-.5.3-1 .8-1.2-.1 0-.3-.1-.4-.1-.7 0-1.2.6-1.2 1.2v4.2h.8v-4.1zM-546.8 308.2v-6.3c0-.7.6-1.3 1.3-1.3h-.8c-.7 0-1.3.6-1.3 1.3v6.3c0 .9.7 1.6 1.6 1.6h.8c-.9 0-1.6-.8-1.6-1.6zM-543.1 296.4c0-.6.5-1.1 1.1-1.1s1.1.5 1.1 1.1v4.2h-2.3v-4.2z"/><path class="st3" d="M-541.5 295.3c-.1 0-.3-.1-.4-.1-.6 0-1.1.5-1.1 1.1v4.2h.8v-4.2c0-.4.3-.8.7-1zM-545.3 296.4c0-.6.5-1.1 1.1-1.1.6 0 1.1.5 1.1 1.1v4.2h-2.3v-4.2z"/><path class="st3" d="M-543.8 295.3c-.1 0-.3-.1-.4-.1-.6 0-1.1.5-1.1 1.1v4.2h.8v-4.2c0-.4.3-.8.7-1z"/><path class="st3" d="M-545.3 296.4v4.2h-1c-.7 0-1.3.6-1.3 1.3v-5.5c0-.6.5-1.1 1.1-1.1.7 0 1.2.5 1.2 1.1z"/><path class="st3" d="M-546.8 296.4c0-.5.3-.9.7-1.1-.1 0-.3-.1-.4-.1-.6 0-1.1.5-1.1 1.1v5.5c0-.5.3-1 .8-1.2v-4.2z"/><path class="st2" d="M-539.9 310.1h-6.1c-1 0-1.9-.9-1.9-1.9v-6.3c0-.9.7-1.6 1.6-1.6h5.2v-3.9c0-.8.7-1.5 1.5-1.5s1.5.7 1.5 1.5v11.8c.1 1-.8 1.9-1.8 1.9zm-6.4-9.2c-.5 0-1 .4-1 1v6.3c0 .7.6 1.3 1.3 1.3h6.1c.7 0 1.3-.6 1.3-1.3v-11.8c0-.5-.4-.9-.9-.9s-.9.4-.9.9v4.2c0 .2-.1.3-.3.3h-5.6z"/><path class="st2" d="M-544 303.5h-1.7v-.6h1.4v-2.5h.6v2.8c0 .2-.1.3-.3.3z"/><path class="st2" d="M-542.2 305.6h-.6v-3.3h-1.2v-.6h1.5c.2 0 .3.1.3.3v3.6zM-540.3 303.8h-1.1v-.6h.9v-1.4c0-.2.1-.3.3-.3h2v.6h-1.7v1.4c-.1.1-.2.3-.4.3zM-540.8 306.7h-.6v-1.8c0-.2.1-.3.3-.3h2.8v.6h-2.5v1.5z"/><path class="st2" d="M-544.3 306.7h-.6v-2c0-.2.1-.3.3-.3h2.1v.6h-1.8v1.7z"/><path class="st2" d="M-546.8 305.5h2.2v.6h-2.2zM-539.8 308.4h-2v-.6h1.7V305h.6v3.1c0 .2-.2.3-.3.3zM-543.5 306.8h.6M-540.8 300.9h-2.3c-.2 0-.3-.1-.3-.3v-4.2c0-.8.6-1.4 1.4-1.4.8 0 1.4.6 1.4 1.4v4.2c.1.1 0 .3-.2.3zm-2-.6h1.7v-3.9c0-.5-.4-.8-.8-.8-.5 0-.8.4-.8.8v3.9z"/><path class="st2" d="M-543.1 300.9h-2.3c-.2 0-.3-.1-.3-.3v-4.2c0-.8.6-1.4 1.4-1.4.8 0 1.4.6 1.4 1.4v4.2c.1.1 0 .3-.2.3zm-1.9-.6h1.7v-3.9c0-.5-.4-.8-.8-.8-.5 0-.8.4-.8.8v3.9z"/><path class="st2" d="M-547.6 302.2c-.2 0-.3-.1-.3-.3v-5.5c0-.8.6-1.4 1.4-1.4s1.4.6 1.4 1.4v4.2c0 .2-.1.3-.3.3h-1c-.5 0-1 .4-1 1 .1.1 0 .3-.2.3zm1.1-6.7c-.5 0-.8.4-.8.8v4.2c.3-.2.6-.4 1-.4h.7v-3.9c0-.3-.4-.7-.9-.7z"/><path class="st3" d="M-538 295.1h-1.5c.7 0 1.2.6 1.2 1.2v11.8c0 .9-.7 1.6-1.6 1.6h1.5c.9 0 1.6-.7 1.6-1.6v-11.8c0-.6-.5-1.2-1.2-1.2z"/><path class="st2" d="M-538.4 310.1h-1.5c-.2 0-.3-.1-.3-.3s.1-.3.3-.3c.7 0 1.3-.6 1.3-1.3v-11.8c0-.5-.4-.9-.9-.9-.2 0-.3-.1-.3-.3 0-.2.1-.3.3-.3h1.5c.8 0 1.5.7 1.5 1.5v11.8c0 1-.8 1.9-1.9 1.9zm-.2-.6h.2c.7 0 1.3-.6 1.3-1.3v-11.8c0-.5-.4-.9-.9-.9h-.3c.2.3.3.6.3.9v11.8c0 .5-.2.9-.6 1.3z"/><path class="st3" d="M-538.3 303.5l1.2-1.2c.5-.5 1.4-.5 1.9 0s.5 1.4 0 1.9l-3.1 3.1v-3.8z"/><path class="st2" d="M-538.3 307.7h-.1c-.1 0-.2-.2-.2-.3v-3.9c0-.1 0-.2.1-.2l1.2-1.2c.6-.6 1.7-.6 2.3 0 .3.3.5.7.5 1.2 0 .4-.2.9-.5 1.2l-3.1 3.1c-.1 0-.1.1-.2.1zm.3-4.1v3l2.6-2.6c.2-.2.3-.5.3-.8 0-.3-.1-.6-.3-.8-.4-.4-1.1-.4-1.5 0l-1.1 1.2z"/></g></switch></svg>