<svg xmlns="http://www.w3.org/2000/svg" width="256.41" height="46.512"><g fill="#fff"><path d="M1.278 39.07l10.67-10.672a20.54 20.54 0 0 0 6.167 6.166L7.444 45.235a4.359 4.359 0 0 1-6.166 0 4.358 4.358 0 0 1 0-6.166zM11.628 17.442C11.628 7.81 19.438 0 29.07 0c9.632 0 17.442 7.81 17.442 17.442 0 9.632-7.81 17.442-17.442 17.442-9.632 0-17.442-7.81-17.442-17.442zM29.07 30.523c7.214 0 13.081-5.867 13.081-13.08 0-7.214-5.867-13.082-13.081-13.082-7.214 0-13.082 5.868-13.082 13.081 0 7.214 5.868 13.081 13.082 13.081z"/><path d="M23.455 13.493h10.883a.454.454 0 0 0 0-.907h-.023a5.436 5.436 0 0 0-4.511-4.906v-.648h-.794V5.445a.114.114 0 0 0-.113-.114.114.114 0 0 0-.114.114V7.03h-.793v.649a5.438 5.438 0 0 0-4.512 4.906h-.023a.454.454 0 0 0 0 .907zM36.605 24.872h-.567v-5.215h.567a.567.567 0 0 0 0-1.134H21.188a.568.568 0 0 0 0 1.134h.567v5.215h-.567a.567.567 0 0 0 0 1.134h15.417a.567.567 0 0 0 0-1.133zm-2.154 0H33.5v-5.215h.952v5.215zm-6.03-5.215h.952v5.215h-.952v-5.215zm-1.587 5.215h-.952v-5.215h.952v5.215zm4.126-5.215h.952v5.215h-.952v-5.215zm-7.618 0h.952v5.215h-.952v-5.215zM22.776 15.42h.57c0 .009-.004.016-.004.023v2.446h1.134v-2.446c0-.009-.005-.017-.005-.023h.539c0 .009-.004.016-.004.023v2.446h1.133v-2.446c0-.009-.004-.017-.004-.023h.538c0 .009-.004.016-.004.023v2.446h1.134v-2.446c0-.009-.005-.017-.005-.023h.538c0 .009-.004.016-.004.023v2.446h1.133v-2.446c0-.009-.004-.017-.004-.023h.538c0 .009-.004.016-.004.023v2.446h1.133v-2.446c0-.009-.004-.017-.004-.023h.539c0 .009-.005.016-.005.023v2.446h1.134v-2.446c0-.009-.005-.017-.005-.023h.538c0 .009-.004.016-.004.023v2.446h1.134v-2.446c0-.009-.005-.017-.005-.023h.571a.566.566 0 1 0 0-1.134H22.78a.567.567 0 0 0-.003 1.134z"/></g></svg>