<svg width="200" height="200" version="1.1" id="Layer_1" xmlns="http://www.w3.org/2000/svg" x="0" y="0" viewBox="-569 283 60 64" xml:space="preserve"><style>.st1{fill:#231f20}.st3{fill:#559df2}</style><switch><g><circle cx="-538.9" cy="314.6" r="30" fill="#f8f8f8"/><path class="st1" d="M-523.5 315.6v-5.8l-4.1-.9c-.2-.5-.4-1-.6-1.4l2.2-3.5-4.1-4.1-3.5 2.2c-.5-.2-.9-.4-1.4-.6l-.9-4.1h-5.8l-.9 4.1c-.5.2-.9.3-1.4.5l-3.5-2.3-4.1 4.1 2.2 3.5c-.2.5-.4.9-.6 1.4l-4.1.9v5.8l4.1.9c.2.5.3 1 .6 1.4l-2.3 3.5 4.1 4.1 3.5-2.2c.5.2.9.4 1.4.6l.9 4.1h5.8l.9-4.1c.5-.2 1-.4 1.4-.6l3.5 2.2 4.1-4.1-2.2-3.5c.2-.5.4-.9.6-1.4l4.2-.7z"/><path class="st1" d="M-526.7 309.7l3.2.7v-.6l-3.4-.8c.1.2.2.4.2.7zm-7.4-7.5c.5.2 1 .4 1.4.6l3.5-2.2-.8-.8-3.5 2.2-.6-.3v.5zm-19.1 8.3l4.1-.9c.2-.5.4-1 .6-1.4l-2.2-3.5 4.1-4.1 3.5 2.3c.4-.2.9-.4 1.4-.5l.9-4.1h5.1l-.2-.8h-5.8l-.9 4.1c-.5.2-.9.3-1.4.5l-3.5-2.3-4.1 4.1 2.2 3.5c-.2.5-.4.9-.6 1.4l-4.1.9v5.8l.9.2v-5.2zm2.4 11.7l2.3-3.5c-.2-.5-.4-.9-.6-1.4l-.7-.2c.1.3.2.5.3.8l-2.3 3.5 4.1 4.1h.1l-3.2-3.3z"/><path class="st1" d="M-535.9 328.3h-5.8c-.1 0-.3-.1-.3-.3l-.9-3.9c-.4-.1-.8-.3-1.1-.5l-3.4 2.1c-.1.1-.3.1-.4 0l-4.1-4.1c-.1-.1-.1-.3 0-.4l2.2-3.4c-.2-.3-.3-.7-.5-1.1l-3.9-.9c-.1 0-.2-.2-.2-.3v-5.8c0-.1.1-.3.3-.3l3.9-.9c.1-.4.3-.8.5-1.1l-2.1-3.4c-.1-.1-.1-.3 0-.4l4.1-4.1c.1-.1.3-.1.4 0l3.4 2.2c.3-.1.7-.3 1.1-.4l.9-3.9c0-.1.2-.2.3-.2h5.8c.1 0 .3.1.3.2l.9 3.9c.4.1.8.3 1.1.5l3.4-2.1c.1-.1.3-.1.4 0l4.1 4.1c.1.1.1.3 0 .4l-2.1 3.4c.2.3.3.7.5 1.1l3.9.9c.1 0 .2.2.2.3v5.8c0 .1-.1.3-.2.3l-3.9.9c-.1.4-.3.8-.5 1.1l2.1 3.4c.1.1.1.3 0 .4l-4.1 4.1c-.1.1-.3.1-.4 0l-3.4-2.2c-.3.2-.7.3-1.1.5l-.9 3.9c-.3.1-.4.2-.5.2zm-5.6-.7h5.3l.9-3.8c0-.1.1-.2.2-.2.5-.2 1-.4 1.4-.6h.3l3.3 2.1 3.8-3.7-2.1-3.3c-.1-.1-.1-.2 0-.3.2-.4.4-.9.6-1.4 0-.1.1-.2.2-.2l3.8-.9V310l-3.8-.9c-.1 0-.2-.1-.2-.2-.2-.5-.4-1-.6-1.4v-.3l2.1-3.3-3.7-3.8-3.3 2.1c-.1.1-.2.1-.3 0-.4-.2-.9-.4-1.4-.6-.1 0-.2-.1-.2-.2l-.9-3.8h-5.3l-.9 3.8c0 .1-.1.2-.2.2-.5.2-.9.3-1.3.5h-.3l-3.3-2.1-3.8 3.7 2.1 3.3c.1.1.1.2 0 .3-.2.4-.4.9-.6 1.4 0 .1-.1.2-.2.2l-3.8.8v5.3l3.8.9c.1 0 .2.1.2.2.2.5.4 1 .6 1.4v.3l-2.1 3.3 3.7 3.8 3.3-2.1c.1-.1.2-.1.3 0 .4.2.9.4 1.4.6.1 0 .2.1.2.2l.8 4z"/><path class="st1" d="M-528.7 312.7c0-5.6-4.5-10.1-10.1-10.1s-10.1 4.5-10.1 10.1c0 4.2 2.6 7.8 6.2 9.3v6h7.6v-6c3.7-1.5 6.4-5.1 6.4-9.3z"/><path class="st1" d="M-542.6 322h7.6v5.9h-7.6z"/><circle cx="-538.8" cy="312.7" r="5.8" fill="#fff"/><path class="st1" d="M-538.8 318.7c-3.4 0-6.1-2.7-6.1-6.1s2.7-6.1 6.1-6.1 6.1 2.7 6.1 6.1-2.7 6.1-6.1 6.1zm0-11.5c-3 0-5.4 2.4-5.4 5.4s2.4 5.4 5.4 5.4c3 0 5.4-2.4 5.4-5.4s-2.4-5.4-5.4-5.4z"/><path class="st3" d="M-535.1 328.3h-7.6c-.2 0-.3-.1-.3-.3v-5.8c-3.8-1.7-6.2-5.4-6.2-9.5 0-5.7 4.7-10.4 10.4-10.4s10.4 4.7 10.4 10.4c0 4.2-2.5 7.9-6.3 9.6v5.7c-.1.1-.2.3-.4.3zm-7.2-.7h6.9V322c0-.1.1-.2.2-.3 3.7-1.5 6.1-5 6.1-9 0-5.4-4.4-9.7-9.7-9.7s-9.7 4.4-9.7 9.7c0 3.9 2.4 7.5 6 9 .1 0 .2.2.2.3v5.6z"/><path class="st3" d="M-542.5 325.6h7.4v.6h-7.4zm0-1.9h7.4v.6h-7.4zm0-2h7.4v.6h-7.4z"/><path class="st1" d="M-541 329.1h4.3v.6h-4.3z"/><path class="st1" d="M-539.2 329.6h.6v2.9h-.6z"/><path class="st1" d="M-538.9 335.2c-.8 0-1.4-.6-1.4-1.4 0-.8.6-1.4 1.4-1.4.8 0 1.4.6 1.4 1.4 0 .7-.6 1.4-1.4 1.4zm0-2.2c-.4 0-.8.3-.8.8 0 .4.3.8.8.8.4 0 .8-.3.8-.8 0-.4-.3-.8-.8-.8z"/></g></switch></svg>