<svg version="1.1" id="Layer_1" xmlns="http://www.w3.org/2000/svg" width="175" height="175" x="0" y="0" xml:space="preserve"><style>.st0{fill:#231f20}.st1{fill:#fff}.st2{fill:#559df2}</style><switch><g><path class="st0" d="M141.2 83.9V63.8l-14.1-3.2c-.6-1.7-1.2-3.3-2-4.9l7.7-12.2-14.2-14.2-12.2 7.7c-1.6-.8-3.2-1.4-4.9-2l-3.2-14.1h-20L75.2 35c-1.6.5-3.2 1.2-4.7 1.9l-12.1-7.8-14.3 14.1 7.7 12.2c-.8 1.6-1.5 3.2-2.1 4.9l-14.1 3.1-.1 20.1 14.1 3.2c.6 1.7 1.2 3.4 2 4.9l-7.8 12.1L57.9 118l12.2-7.7c1.6.8 3.2 1.5 4.9 2l3.1 14.1 20.1.1 3.2-14.1c1.7-.6 3.3-1.2 4.9-2l12.2 7.8 14.2-14.2-7.7-12c.8-1.6 1.5-3.2 2-4.9l14.2-3.2z"/><path class="st0" d="M130.3 63.4l11 2.5v-2l-11.8-2.7c.2.7.5 1.4.8 2.2zM104.7 37.8c1.7.6 3.3 1.2 4.9 2l12-7.6-2.9-2.9-12.2 7.7c-.7-.4-1.4-.7-2.2-1l.4 1.8zM38.7 66.2l14.1-3.1c.6-1.7 1.3-3.3 2.1-4.9L47.2 46l14.3-14.1 12.1 7.8c1.5-.7 3.1-1.3 4.7-1.9l3.2-14.1H99l-.6-2.7H78.3l-3.1 14c-1.6.5-3.2 1.2-4.7 1.9l-12.1-7.8-14.3 14.1 7.7 12.2c-.8 1.6-1.5 3.2-2.1 4.9l-14.1 3.1-.1 20.1 3.1.7.1-18zM46.9 106.6l7.8-12.1c-.8-1.6-1.4-3.2-2-4.9l-2.3-.6c.4.9.7 1.8 1.2 2.7l-7.8 12.1 14.1 14.3.3-.2-11.3-11.3z"/><path class="st0" d="M98.2 127.8l-20.1-.1c-.5 0-1-.4-1.1-.9l-3-13.5c-1.4-.5-2.7-1-3.9-1.6L58.5 119c-.4.3-1 .2-1.4-.2L43 104.6c-.4-.4-.4-.9-.1-1.4l7.5-11.6c-.6-1.2-1.1-2.5-1.6-3.9l-13.5-3.1c-.5-.1-.9-.6-.9-1.1l.1-20.1c0-.5.4-1 .9-1.1l13.5-2.9c.5-1.4 1-2.6 1.6-3.9l-7.3-11.7c-.3-.4-.2-1 .2-1.4l14.3-14.1c.4-.4.9-.4 1.4-.1l11.6 7.5c1.1-.5 2.3-1 3.7-1.5l3-13.5c.1-.5.6-.9 1.1-.9h20.1c.5 0 1 .4 1.1.9l3 13.5c1.4.5 2.7 1 3.9 1.6l11.7-7.4c.4-.3 1-.2 1.4.2l14.2 14.2c.4.4.4.9.2 1.4l-7.4 11.7c.6 1.2 1.1 2.5 1.6 3.9l13.5 3c.5.1.9.6.9 1.1V84c0 .5-.4 1-.9 1.1l-13.5 3c-.5 1.4-1 2.7-1.6 3.9l7.4 11.7c.3.4.2 1-.2 1.4l-14.2 14.2c-.4.4-.9.4-1.4.1l-11.6-7.4c-1.2.6-2.5 1.1-3.9 1.6l-3.1 13.5c-.5.3-1 .7-1.5.7zM79 125.5l18.3.1 3-13.2c.1-.4.4-.7.7-.8 1.8-.6 3.4-1.2 4.8-1.9.3-.2.8-.1 1.1.1l11.4 7.3 13-12.9-7.2-11.5c-.2-.3-.2-.7-.1-1.1.7-1.5 1.4-3 2-4.8.1-.4.4-.6.8-.7l13.3-2.9V64.9l-13.2-3c-.4-.1-.7-.4-.8-.7-.6-1.8-1.2-3.4-2-4.8-.2-.3-.1-.8.1-1.1l7.3-11.4-12.9-13-11.5 7.1c-.3.2-.7.2-1.1.1-1.5-.7-3-1.4-4.8-2-.4-.1-.6-.4-.7-.8l-3-13.2H79.2l-3 13.2c-.1.4-.4.7-.7.8-1.8.6-3.2 1.2-4.5 1.8-.3.2-.8.1-1.1-.1l-11.4-7.3-13 12.9 7.2 11.5c.2.3.2.7.1 1.1-.8 1.5-1.4 3.1-2 4.8-.1.4-.4.6-.8.7l-13.3 2.9-.1 18.3 13.2 3c.4.1.7.4.8.7.6 1.8 1.2 3.4 1.9 4.8.2.3.1.8-.1 1.1l-7.3 11.4 12.9 13 11.5-7.2c.3-.2.7-.2 1.1-.1 1.5.7 3.1 1.4 4.8 2 .4.1.6.4.7.8l2.9 13.3z"/><path class="st0" d="M123.1 73.8c0-19.2-15.6-34.7-34.7-34.7S53.6 54.6 53.6 73.8c0 14.5 8.9 26.9 21.4 32.1v20.8h26.1v-20.6c12.9-5.1 22-17.7 22-32.3z"/><path class="st0" d="M75 106.2h26.1v20.5H75z"/><circle class="st1" cx="88.3" cy="73.8" r="19.9"/><path class="st0" d="M88.3 94.8c-11.6 0-21-9.4-21-21s9.4-21 21-21 21 9.4 21 21-9.4 21-21 21zm0-39.8C78 55 69.5 63.4 69.5 73.8S78 92.6 88.3 92.6s18.8-8.4 18.8-18.8S98.7 55 88.3 55z"/><path class="st1" d="M101.2 127.8H75c-.6 0-1.1-.5-1.1-1.1v-20c-13-5.7-21.4-18.5-21.4-32.8 0-19.8 16.1-35.8 35.8-35.8s35.8 16.1 35.8 35.8c0 14.5-8.6 27.4-21.9 33v19.9c.1.5-.4 1-1 1zm-25.1-2.2H100v-19.5c0-.5.3-.9.7-1 12.9-5.1 21.2-17.4 21.2-31.2 0-18.6-15.1-33.6-33.6-33.6S54.7 55.2 54.7 73.8c0 13.6 8.1 25.8 20.8 31.1.4.2.7.6.7 1v19.7z"/><path class="st2" d="M75.5 118.6h25.7v2.2H75.5zM75.5 111.8h25.7v2.2H75.5zM75.5 104.8h25.7v2.2H75.5z"/><path class="st0" d="M80.7 130.7h14.9v2.2H80.7z"/><path class="st0" d="M87 132.2h2.2v10H87z"/><path class="st0" d="M88.1 151.5c-2.7 0-4.8-2.2-4.8-4.8s2.2-4.8 4.8-4.8c2.7 0 4.8 2.2 4.8 4.8s-2.1 4.8-4.8 4.8zm0-7.4c-1.4 0-2.6 1.2-2.6 2.6s1.2 2.6 2.6 2.6c1.4 0 2.6-1.2 2.6-2.6s-1.2-2.6-2.6-2.6z"/></g></switch></svg>