<svg version="1.1" id="Layer_1" xmlns="http://www.w3.org/2000/svg" width="175" height="175" x="0" y="0" xml:space="preserve"><style>.st0{fill:#559df2}.st1{fill:#fff}.st2{fill:#050505}</style><switch><g><path d="M58 74.9h22v51.9H58z"/><path class="st0" d="M58 74.9h3.6v51.9H58z"/><path class="st0" d="M58 74.9h22v3.7H58z"/><path d="M73.5 119.4h54.3v22H73.5z"/><path class="st0" d="M73.5 119.4h54.3v3.8H73.5z"/><path class="st1" d="M80 127.9H58c-.6 0-1.1-.5-1.1-1.1V74.9c0-.6.5-1.1 1.1-1.1h22c.6 0 1.1.5 1.1 1.1v51.9c0 .6-.5 1.1-1.1 1.1zm-21-2.2h19.8V76H59v49.7z"/><path class="st0" d="M80 74.9h6v51.9h-6z"/><path class="st1" d="M86 127.9h-6c-.6 0-1.1-.5-1.1-1.1V74.9c0-.6.5-1.1 1.1-1.1h6c.6 0 1.1.5 1.1 1.1v51.9c0 .6-.5 1.1-1.1 1.1zm-4.9-2.2H85V76h-3.9v49.7z"/><path class="st1" d="M127.8 142.4H73.5c-.6 0-1.1-.5-1.1-1.1v-22c0-.6.5-1.1 1.1-1.1h54.3v2.2H74.6v19.8h53.2v2.2z"/><circle class="st0" cx="72.1" cy="127.3" r="18.2"/><path class="st1" d="M72.1 146.6c-10.7 0-19.3-8.7-19.3-19.3S61.5 108 72.1 108s19.3 8.7 19.3 19.3-8.7 19.3-19.3 19.3zm0-36.5c-9.5 0-17.2 7.7-17.2 17.2s7.7 17.2 17.2 17.2 17.2-7.7 17.2-17.2-7.8-17.2-17.2-17.2z"/><path class="st2" d="M72.1 151.7c-.7 0-1.5 0-2.2-.1l.2-2.1c.7.1 1.4.1 2 .1.7 0 1.4 0 2.1-.1l.2 2.1c-.7.1-1.5.1-2.3.1zm-6.6-.9c-1.4-.4-2.9-.9-4.2-1.6l1-1.9c1.2.6 2.5 1.1 3.8 1.5l-.6 2zm13.3 0l-.6-2.1c1.3-.4 2.6-.9 3.8-1.5l1 1.9c-1.3.7-2.7 1.3-4.2 1.7zm-21.4-4c-1.2-.9-2.3-1.9-3.3-3l1.6-1.5c.9 1 2 1.9 3 2.8l-1.3 1.7zm29.4 0l-1.3-1.7c1.1-.8 2.1-1.8 3-2.8l1.6 1.4c-.9 1.1-2.1 2.1-3.3 3.1zm-35.4-6.5c-.8-1.3-1.5-2.6-2-4l2-.8c.5 1.3 1.1 2.5 1.9 3.7l-1.9 1.1zm41.5-.2L91 139c.7-1.2 1.3-2.4 1.8-3.7l2 .8c-.5 1.4-1.1 2.7-1.9 4zm-44.8-8.2c-.3-1.5-.4-3-.4-4.5h2.2c0 1.4.1 2.7.4 4.1l-2.2.4zm48-.2l-2.1-.4c.2-1.3.4-2.7.4-4.1v-.3h2.2v.3c-.1 1.6-.2 3.1-.5 4.5zm-46-8.4l-2.1-.4c.3-1.5.7-2.9 1.2-4.3l2 .8c-.5 1.2-.8 2.6-1.1 3.9zm43.8-.4c-.3-1.3-.7-2.7-1.2-3.9l2-.8c.6 1.4 1 2.8 1.3 4.3l-2.1.4zM53 115.7l-1.8-1.1c.8-1.3 1.7-2.5 2.7-3.6l1.6 1.4c-.9 1-1.8 2.1-2.5 3.3zm37.9-.4c-.7-1.2-1.6-2.2-2.5-3.2l1.6-1.5c1 1.1 2 2.3 2.8 3.6l-1.9 1.1zm-32.4-5.7l-1.3-1.7c1.2-.9 2.5-1.7 3.8-2.4l1 1.9c-1.3.6-2.4 1.4-3.5 2.2zm26.8-.3c-1.1-.8-2.3-1.5-3.5-2.1l.9-1.9c1.4.7 2.6 1.4 3.9 2.3l-1.3 1.7zm-19.5-3.4l-.6-2.1c1.4-.4 2.9-.7 4.4-.9l.2 2.1c-1.4.2-2.7.5-4 .9zm12.2-.1c-1.3-.4-2.7-.6-4-.7l.2-2.1c1.5.1 3 .4 4.4.8l-.6 2zM81.8 90c-.7-.2-1.4-.3-2-.5l.4-2.1c.7.1 1.4.3 2.2.5l-.6 2.1zM108 113.2c-.5-1.4-1.2-2.8-1.9-4.1l1.9-1c.8 1.4 1.4 2.9 2 4.3l-2 .8zm-4.3-8c-.9-1.2-1.8-2.4-2.8-3.6l1.6-1.4c1.1 1.2 2.1 2.5 3 3.8l-1.8 1.2zm-6-6.8c-1.1-1-2.3-1.9-3.6-2.8l1.2-1.8c1.3.9 2.6 1.9 3.8 3l-1.4 1.6zm-7.5-5.1c-1.3-.7-2.7-1.3-4.1-1.9l.8-2c1.5.6 3 1.3 4.3 2l-1 1.9zM109.9 119.6c-.1-.7-.3-1.4-.5-2l2.1-.5c.2.7.4 1.4.5 2.2l-2.1.3z"/><circle class="st2" cx="72.1" cy="127.3" r="8.7"/><path class="st1" d="M72.1 137.1v-2.2c1.3 0 2.7-.4 3.8-1l1.1 1.9c-1.5.8-3.2 1.3-4.9 1.3zm-4.9-1.3c-1.5-.9-2.7-2.1-3.6-3.6l1.9-1.1c.7 1.2 1.6 2.1 2.8 2.8l-1.1 1.9zm13.4-3.6l-1.9-1.1c.7-1.2 1-2.5 1-3.8l2.2-.1v.1c0 1.7-.5 3.4-1.3 4.9zm-18-4.9h-.3c0-1.7.4-3.4 1.3-4.9l1.9 1.1c-.7 1.1-1 2.5-1 3.8h-1.9zm16.1-3.9c-.7-1.2-1.7-2.1-2.8-2.8l1.1-1.9c1.5.8 2.7 2.1 3.6 3.5l-1.9 1.2zm-10.5-2.7l-1.1-1.9c1.5-.9 3.2-1.3 4.9-1.4v2.2c-1.3 0-2.7.4-3.8 1.1z"/><path class="st2" d="M77.3 41V25.5c0-2.5 2-4.6 4.6-4.6 2.5 0 4.6 2 4.6 4.6V69c0 3.3-2.6 5.9-5.9 5.9H58.2c-3.3 0-5.9-2.6-5.9-5.9V45.7c0-2.6 2.1-4.7 4.7-4.7h20.3z"/><path class="st2" d="M80.3 25.5c0-2 1.3-3.7 3.1-4.3-.5-.2-1-.3-1.5-.3-2.5 0-4.6 2-4.6 4.6V41h3V25.5zM55.3 69V45.7c0-2.6 2.1-4.7 4.7-4.7h-3c-2.6 0-4.7 2.1-4.7 4.7V69c0 3.3 2.6 5.9 5.9 5.9h3c-3.3 0-5.9-2.7-5.9-5.9z"/><path class="st2" d="M69 25.5c0-2.3 1.9-4.2 4.2-4.2 2.3 0 4.2 1.9 4.2 4.2V41H69V25.5z"/><path class="st2" d="M74.7 21.7c-.5-.2-1-.3-1.5-.3-2.3 0-4.2 1.9-4.2 4.2V41h3V25.5c0-1.7 1.1-3.2 2.7-3.8zM60.6 25.5c0-2.3 1.9-4.2 4.2-4.2 2.3 0 4.2 1.9 4.2 4.2V41h-8.4V25.5z"/><path class="st2" d="M66.3 21.6c-.5-.2-1-.3-1.5-.3-2.3 0-4.2 1.9-4.2 4.2V41h3V25.5c0-1.7 1.1-3.3 2.7-3.9z"/><path class="st2" d="M60.6 25.5V41H57c-2.6 0-4.7 2.1-4.7 4.7V25.5c0-2.3 1.9-4.2 4.2-4.2 2.2.1 4.1 1.9 4.1 4.2z"/><path class="st2" d="M55.3 25.5c0-1.8 1.1-3.3 2.7-3.9-.5-.2-1-.3-1.5-.3-2.3 0-4.2 1.9-4.2 4.2v20.2c0-2 1.2-3.7 3-4.4V25.5z"/><path class="st1" d="M80.5 76H58.2c-3.9 0-7-3.1-7-7V45.7c0-3.2 2.6-5.8 5.8-5.8h19.3V25.5c0-3.1 2.5-5.6 5.6-5.6 3.1 0 5.6 2.5 5.6 5.6V69c0 3.8-3.1 7-7 7zM57 42.1c-2 0-3.7 1.6-3.7 3.7V69c0 2.7 2.2 4.8 4.8 4.8h22.4c2.7 0 4.8-2.2 4.8-4.8V25.5c0-1.9-1.6-3.5-3.5-3.5s-3.5 1.6-3.5 3.5V41c0 .6-.5 1.1-1.1 1.1H57z"/><path class="st1" d="M65.5 51.9h-6.4v-2.2h5.3v-9.3h2.2v10.4c0 .6-.5 1.1-1.1 1.1z"/><path class="st1" d="M72 59.6h-2.2V47.5h-4.4v-2.2h5.4c.6 0 1.1.5 1.1 1.1v13.2zM79.2 52.8H75v-2.2h3.1v-5.1c0-.6.5-1.1 1.1-1.1h7.2v2.2h-6.1v5.1c0 .6-.5 1.1-1.1 1.1zM77.2 63.7H75V57c0-.6.5-1.1 1.1-1.1h10.3v2.2h-9.2v5.6z"/><path class="st1" d="M64.3 63.7h-2.2v-7.3c0-.6.5-1.1 1.1-1.1h7.7v2.2h-6.6v6.2z"/><path class="st1" d="M55.3 59.3h8v2.2h-8zM80.9 69.9h-7.2v-2.2h6.2V57.4H82v11.4c0 .6-.5 1.1-1.1 1.1zM67.4 64h2.2M77.3 42.1H69c-.6 0-1.1-.5-1.1-1.1V25.5c0-2.9 2.4-5.3 5.3-5.3s5.3 2.4 5.3 5.3V41c-.1.6-.6 1.1-1.2 1.1zm-7.2-2.2h6.2V25.5c0-1.7-1.4-3.1-3.1-3.1-1.7 0-3.1 1.4-3.1 3.1v14.4z"/><path class="st1" d="M69 42.1h-8.4c-.6 0-1.1-.5-1.1-1.1V25.5c0-2.9 2.4-5.3 5.3-5.3s5.3 2.4 5.3 5.3V41c0 .6-.5 1.1-1.1 1.1zm-7.3-2.2h6.2V25.5c0-1.7-1.4-3.1-3.1-3.1-1.7 0-3.1 1.4-3.1 3.1v14.4z"/><path class="st1" d="M52.3 46.8c-.6 0-1.1-.5-1.1-1.1V25.5c0-2.9 2.4-5.3 5.3-5.3s5.3 2.4 5.3 5.3V41c0 .6-.5 1.1-1.1 1.1H57c-2 0-3.7 1.6-3.7 3.7 0 .5-.4 1-1 1zm4.1-24.4c-1.7 0-3.1 1.4-3.1 3.1v15.7c1-.8 2.3-1.3 3.7-1.3h2.5V25.5c0-1.7-1.4-3.1-3.1-3.1z"/><path class="st2" d="M87.6 20.9h-5.7c2.5 0 4.6 2 4.6 4.6V69c0 3.3-2.6 5.9-5.9 5.9h5.7c3.3 0 5.9-2.6 5.9-5.9V25.5c-.1-2.6-2.1-4.6-4.6-4.6z"/><path class="st1" d="M86.2 76h-5.7c-.6 0-1.1-.5-1.1-1.1s.5-1.1 1.1-1.1c2.7 0 4.8-2.2 4.8-4.8V25.5c0-1.9-1.6-3.5-3.5-3.5-.6 0-1.1-.5-1.1-1.1s.5-1.1 1.1-1.1h5.7c3.1 0 5.6 2.5 5.6 5.6V69c.1 3.8-3 7-6.9 7zm-.6-2.2h.6c2.7 0 4.8-2.2 4.8-4.8V25.5c0-1.9-1.6-3.5-3.5-3.5h-1.2c.8 1 1.2 2.2 1.2 3.5V69c0 1.9-.7 3.6-1.9 4.8z"/><path class="st2" d="M86.4 51.8l4.4-4.4c2-2 5.2-2 7.1 0 2 2 2 5.2 0 7.1L86.4 66.1V51.8z"/><path class="st1" d="M86.4 67.2c-.1 0-.3 0-.4-.1-.4-.2-.7-.6-.7-1V51.8c0-.3.1-.6.3-.8l4.4-4.4c2.3-2.3 6.4-2.3 8.7 0 1.2 1.2 1.8 2.7 1.8 4.3 0 1.6-.6 3.2-1.8 4.3L87.2 66.9c-.2.2-.5.3-.8.3zm1.1-14.9v11.2l9.7-9.7c.8-.7 1.2-1.7 1.2-2.8 0-1.1-.4-2.1-1.2-2.8-1.5-1.5-4.1-1.5-5.6 0l-4.1 4.1z"/></g></switch></svg>